TITLE ""
FILE "DISC2Track14.mp3" MP3
  TRACK 01 AUDIO
    TITLE "DISC2Track14_01"
    INDEX 01 00:00:00
  TRACK 02 AUDIO
    TITLE "DISC2Track14_02"
    INDEX 01 00:01:51
  TRACK 03 AUDIO
    TITLE "DISC2Track14_03"
    INDEX 01 00:01:69
  TRACK 04 AUDIO
    TITLE "DISC2Track14_04"
    INDEX 01 00:05:39
  TRACK 05 AUDIO
    TITLE "DISC2Track14_05"
    INDEX 01 00:08:41
  TRACK 06 AUDIO
    TITLE "DISC2Track14_06"
    INDEX 01 00:11:24
  TRACK 07 AUDIO
    TITLE "DISC2Track14_07"
    INDEX 01 00:11:41
  TRACK 08 AUDIO
    TITLE "DISC2Track14_08"
    INDEX 01 00:16:50
  TRACK 09 AUDIO
    TITLE "DISC2Track14_09"
    INDEX 01 00:21:36
  TRACK 10 AUDIO
    TITLE "DISC2Track14_10"
    INDEX 01 00:25:67
  TRACK 11 AUDIO
    TITLE "DISC2Track14_11"
    INDEX 01 00:26:08
  TRACK 12 AUDIO
    TITLE "DISC2Track14_12"
    INDEX 01 00:29:37
  TRACK 13 AUDIO
    TITLE "DISC2Track14_13"
    INDEX 01 00:32:34
  TRACK 14 AUDIO
    TITLE "DISC2Track14_14"
    INDEX 01 00:34:70
  TRACK 15 AUDIO
    TITLE "DISC2Track14_15"
    INDEX 01 00:35:11
  TRACK 16 AUDIO
    TITLE "DISC2Track14_16"
    INDEX 01 00:39:12
  TRACK 17 AUDIO
    TITLE "DISC2Track14_17"
    INDEX 01 00:43:40
  TRACK 18 AUDIO
    TITLE "DISC2Track14_18"
    INDEX 01 00:47:35
  TRACK 19 AUDIO
    TITLE "DISC2Track14_19"
    INDEX 01 00:47:51
  TRACK 20 AUDIO
    TITLE "DISC2Track14_20"
    INDEX 01 00:50:49
  TRACK 21 AUDIO
    TITLE "DISC2Track14_21"
    INDEX 01 00:53:30
  TRACK 22 AUDIO
    TITLE "DISC2Track14_22"
    INDEX 01 00:55:64
  TRACK 23 AUDIO
    TITLE "DISC2Track14_23"
    INDEX 01 00:56:05
  TRACK 24 AUDIO
    TITLE "DISC2Track14_24"
    INDEX 01 00:59:62
  TRACK 25 AUDIO
    TITLE "DISC2Track14_25"
    INDEX 01 01:03:58
  TRACK 26 AUDIO
    TITLE "DISC2Track14_26"
    INDEX 01 01:07:28
  TRACK 27 AUDIO
    TITLE "DISC2Track14_27"
    INDEX 01 01:07:54
  TRACK 28 AUDIO
    TITLE "DISC2Track14_28"
    INDEX 01 01:12:14
  TRACK 29 AUDIO
    TITLE "DISC2Track14_29"
    INDEX 01 01:15:71
  TRACK 30 AUDIO
    TITLE "DISC2Track14_30"
    INDEX 01 01:19:20
  TRACK 31 AUDIO
    TITLE "DISC2Track14_31"
    INDEX 01 01:19:35
  TRACK 32 AUDIO
    TITLE "DISC2Track14_32"
    INDEX 01 01:23:63
  TRACK 33 AUDIO
    TITLE "DISC2Track14_33"
    INDEX 01 01:28:28
  TRACK 34 AUDIO
    TITLE "DISC2Track14_34"
    INDEX 01 01:32:34
  TRACK 35 AUDIO
    TITLE "DISC2Track14_35"
    INDEX 01 01:32:50
  TRACK 36 AUDIO
    TITLE "DISC2Track14_36"
    INDEX 01 01:36:01
  TRACK 37 AUDIO
    TITLE "DISC2Track14_37"
    INDEX 01 01:39:54
  TRACK 38 AUDIO
    TITLE "DISC2Track14_38"
    INDEX 01 01:42:72
  TRACK 39 AUDIO
    TITLE "DISC2Track14_39"
    INDEX 01 01:43:10
  TRACK 40 AUDIO
    TITLE "DISC2Track14_40"
    INDEX 01 01:46:17
  TRACK 41 AUDIO
    TITLE "DISC2Track14_41"
    INDEX 01 01:49:19
  TRACK 42 AUDIO
    TITLE "DISC2Track14_42"
    INDEX 01 01:51:63
